<svg xmlns="http://www.w3.org/2000/svg" width="200" height="200" class="icon" viewBox="0 0 1024 1024"><path d="M942.78 724.58C904.14 683.06 831.84 620.6 831.84 416c0-155.4-108.96-279.8-255.88-310.32V64c0-35.34-28.64-64-63.96-64s-63.96 28.66-63.96 64v41.68C301.12 136.2 192.16 260.6 192.16 416c0 204.6-72.3 267.06-110.94 308.58C69.22 737.48 63.9 752.9 64 768c.22 32.8 25.96 64 64.2 64h767.6c38.24 0 64-31.2 64.2-64 .1-15.1-5.22-30.54-17.22-43.42M199.06 736c42.44-55.94 88.84-148.66 89.06-318.84 0-.4-.12-.76-.12-1.16 0-123.72 100.28-224 224-224s224 100.28 224 224c0 .4-.12.76-.12 1.16.22 170.2 46.62 262.92 89.06 318.84zM512 1024c70.64 0 127.94-57.3 127.94-128H384.06c0 70.7 57.3 128 127.94 128"/></svg>