<svg xmlns="http://www.w3.org/2000/svg" width="200" height="200" class="icon" viewBox="0 0 1024 1024"><path d="M959.896 64.104c0-25.797-15.599-49.194-39.596-59.193s-51.394-4.4-69.792 13.798l-87.191 87.39c-95.99 95.99-226.175 149.984-361.96 149.984h-273.37C57.393 256.083 0 313.477 0 384.07v191.979c0 70.592 57.394 127.986 127.986 127.986v255.972c0 35.396 28.597 63.993 63.993 63.993h127.986c35.396 0 63.993-28.597 63.993-63.993V704.035h17.398c135.786 0 265.971 53.994 361.961 149.983l87.19 87.191c18.399 18.398 45.796 23.797 69.793 13.799s39.596-33.197 39.596-59.194V600.846c37.196-17.598 63.993-64.993 63.993-120.787s-26.797-103.189-63.993-120.787zM831.91 217.488V742.63C714.322 635.642 560.939 576.049 401.356 576.049h-17.398v-191.98h17.398c159.583 0 312.966-59.593 430.554-166.581"/></svg>