<svg xmlns="http://www.w3.org/2000/svg" width="200" height="200" class="icon" viewBox="0 0 1024 1024"><path d="M813 799.2C774.8 705.8 683 640 576 640H448c-107 0-198.8 65.8-237 159.2C139.8 724.4 96 623.4 96 512 96 282.2 282.2 96 512 96s416 186.2 416 416c0 111.4-43.8 212.4-115 287.2m-80.2 65.4C668.8 904.8 593.2 928 512 928s-156.8-23.2-221-63.4C305.6 791.2 370.4 736 448 736h128c77.6 0 142.4 55.2 157 128.6zM512 1024A512 512 0 1 0 512 0a512 512 0 1 0 0 1024m0-544a80 80 0 1 1 0-160 80 80 0 1 1 0 160m-176-80a176 176 0 1 0 352 0 176 176 0 1 0-352 0"/></svg>