<svg xmlns="http://www.w3.org/2000/svg" width="250" height="200" class="icon" viewBox="0 0 1280 1024"><path d="M1075.2 453.2c8.2-21.4 12.8-44.8 12.8-69.2 0-106-86-192-192-192-39.4 0-76.2 12-106.6 32.4C734 128.4 630.6 64 512 64c-176.8 0-320 143.2-320 320 0 5.4.2 10.8.4 16.2C80.4 439.6 0 546.4 0 672c0 159 129 288 288 288h736c141.4 0 256-114.6 256-256 0-123.8-88-227.2-204.8-250.8M786.8 576H656v224c0 17.6-14.4 32-32 32h-96c-17.6 0-32-14.4-32-32V576H365.2c-28.6 0-42.8-34.4-22.6-54.6l210.8-210.8c12.4-12.4 32.8-12.4 45.2 0l210.8 210.8c20.2 20.2 5.8 54.6-22.6 54.6"/></svg>