<svg xmlns="http://www.w3.org/2000/svg" width="250" height="200" class="icon" viewBox="0 0 1280 1024"><path d="m557.85 1023-122-35.4c-12.8-3.6-20-17-16.4-29.8l273-940.4c3.6-12.8 17-20 29.8-16.4l122 35.4c12.8 3.6 20 17 16.4 29.8l-273 940.4c-3.8 12.8-17 20.2-29.8 16.4m-228-224.4 87-92.8c9.2-9.8 8.6-25.4-1.6-34.4L234.05 512l181.2-159.4c10.2-9 11-24.6 1.6-34.4l-87-92.8c-9-9.6-24.2-10.2-34-1l-288.2 270c-10.2 9.4-10.2 25.6 0 35l288.2 270.2c9.8 9.2 25 8.8 34-1m654.4 1.2 288.2-270.2c10.2-9.4 10.2-25.6 0-35l-288.2-270.4c-9.6-9-24.8-8.6-34 1l-87 92.8c-9.2 9.8-8.6 25.4 1.6 34.4l181.2 159.6-181.2 159.4c-10.2 9-11 24.6-1.6 34.4l87 92.8c9 9.8 24.2 10.2 34 1.2"/></svg>