<svg xmlns="http://www.w3.org/2000/svg" width="250" height="200" class="icon" viewBox="0 0 1280 1024"><path d="M176.444 618.2c19.6-36.6 13.6-81.6-15-111.6-42.6-44.8-65.4-98.6-65.4-154.6 0-127 127.6-256 320-256s320 129 320 256-127.6 256-320 256c-26.2 0-51.6-2.6-75.6-7.2-20.8-4-42.4-1.2-61.4 8.4q-12.3 6.3-25.2 12c-32 14.4-65.8 27-99.8 36 5.6-9.2 10.8-18.2 15.8-27.2 2.2-3.8 4.4-7.8 6.4-11.8zM.044 352c0 83.6 34.4 160.2 91.8 220.6-1.8 3.4-3.8 7-5.6 10.2-20.6 36.8-44.6 73-73.2 104.2-13.2 14-16.6 34.4-9.2 51.8 7.8 17.8 25 29.2 44.2 29.2 86 0 173-26.6 245.4-59.4 9.6-4.4 19.2-9 28.4-13.6 30.2 6 61.8 9 94.2 9 229.8 0 416-157.6 416-352s-186.2-352-416-352-416 157.6-416 352m864 608c32.4 0 63.8-3.2 94.2-9 9.2 4.6 18.8 9.2 28.4 13.6 72.4 32.8 159.4 59.4 245.4 59.4 19.2 0 36.4-11.4 44-29s4-38-9.2-51.8c-28.4-31.2-52.4-67.4-73.2-104.2-1.8-3.4-3.8-6.8-5.6-10.2 57.6-60.6 92-137.2 92-220.8 0-188.8-175.8-343-396.4-351.6 8.2 30.4 12.4 62.4 12.4 95.6v1.2c174.4 13.4 288 135 288 254.8 0 56-22.8 109.8-65.4 154.4-28.6 30-34.6 75.2-15 111.6 2.2 4 4.4 8 6.4 11.8 5 9 10.4 18 15.8 27.2-34-9-67.8-21.4-99.8-36q-12.9-5.7-25.2-12c-19-9.6-40.6-12.4-61.4-8.4q-36.3 7.2-75.6 7.2c-123.4 0-220-53-273.6-124.6-32 10.8-65.6 18.8-100 23.6 67.8 116.8 209.8 197.2 373.8 197.2"/></svg>