<svg xmlns="http://www.w3.org/2000/svg" width="200" height="200" class="icon" viewBox="0 0 1024 1024"><path d="M931.882 131.882 828.118 28.118A96 96 0 0 0 760.236 0H416c-53.02 0-96 42.98-96 96v96H160c-53.02 0-96 42.98-96 96v640c0 53.02 42.98 96 96 96h448c53.02 0 96-42.98 96-96v-96h160c53.02 0 96-42.98 96-96V199.764a96 96 0 0 0-28.118-67.882M596 928H172a12 12 0 0 1-12-12V300a12 12 0 0 1 12-12h148v448c0 53.02 42.98 96 96 96h192v84a12 12 0 0 1-12 12m256-192H428a12 12 0 0 1-12-12V108a12 12 0 0 1 12-12h212v176c0 26.51 21.49 48 48 48h176v404a12 12 0 0 1-12 12m12-512H736V96h19.264c3.182 0 6.234 1.264 8.486 3.514l96.736 96.736a12 12 0 0 1 3.514 8.486z"/></svg>