<svg xmlns="http://www.w3.org/2000/svg" width="225" height="200" class="icon" viewBox="0 0 1152 1024"><path d="m804.6 689.8 64-64c10-10 27.4-3 27.4 11.4V928c0 53-43 96-96 96H96c-53 0-96-43-96-96V224c0-53 43-96 96-96h547c14.2 0 21.4 17.2 11.4 27.4l-64 64c-3 3-7 4.6-11.4 4.6H96v704h704V701c0-4.2 1.6-8.2 4.6-11.2m313.2-403.6L592.6 811.4l-180.8 20c-52.4 5.8-97-38.4-91.2-91.2l20-180.8L865.8 34.2c45.8-45.8 119.8-45.8 165.4 0l86.4 86.4c45.8 45.8 45.8 120 .2 165.6M920.2 348 804 231.8 432.4 603.6l-14.6 130.6 130.6-14.6zm129.6-159.4-86.4-86.4c-8.2-8.2-21.6-8.2-29.6 0L872 164l116.2 116.2 61.8-61.8c8-8.4 8-21.6-.2-29.8"/></svg>