<svg xmlns="http://www.w3.org/2000/svg" width="225" height="200" class="icon" viewBox="0 0 1152 1024"><path d="M576 160c-130.4 0-237.6 59.2-319.8 135.4C179.2 367 126 452 98.8 512 126 572 179.2 657 256 728.6 338.4 804.8 445.6 864 576 864s237.6-59.2 319.8-135.4C972.8 657 1026 572 1053.2 512 1026 452 972.8 367 896 295.4 813.6 219.2 706.4 160 576 160m-385.2 65.2C285 137.6 414.4 64 576 64s291 73.6 385.2 161.2c93.6 87 156.2 190.8 186 262.2 6.6 15.8 6.6 33.4 0 49.2-29.8 71.4-92.4 175.4-186 262.2C867 886.4 737.6 960 576 960s-291-73.6-385.2-161.2C97.2 712 34.6 608 5 536.6c-6.6-15.8-6.6-33.4 0-49.2C34.6 416 97.2 312 190.8 225.2M576 672c88.4 0 160-71.6 160-160s-71.6-160-160-160h-4c2.6 10.2 4 21 4 32 0 70.6-57.4 128-128 128-11 0-21.8-1.4-32-4v4c0 88.4 71.6 160 160 160m0-416a256 256 0 1 1 0 512 256 256 0 1 1 0-512"/></svg>