<svg xmlns="http://www.w3.org/2000/svg" width="200" height="200" class="icon" viewBox="0 0 1024 1024"><path d="M336 160c-26.6 0-48 21.4-48 48v608c0 16.8-2.8 33-8.2 48H880c26.6 0 48-21.4 48-48V208c0-26.6-21.4-48-48-48zM144 960C64.4 960 0 895.6 0 816V224c0-26.6 21.4-48 48-48s48 21.4 48 48v592c0 26.6 21.4 48 48 48s48-21.4 48-48V208c0-79.6 64.4-144 144-144h544c79.6 0 144 64.4 144 144v608c0 79.6-64.4 144-144 144zm208-688c0-26.6 21.4-48 48-48h192c26.6 0 48 21.4 48 48v160c0 26.6-21.4 48-48 48H400c-26.6 0-48-21.4-48-48zm400-48h64c26.6 0 48 21.4 48 48s-21.4 48-48 48h-64c-26.6 0-48-21.4-48-48s21.4-48 48-48m0 160h64c26.6 0 48 21.4 48 48s-21.4 48-48 48h-64c-26.6 0-48-21.4-48-48s21.4-48 48-48M400 544h416c26.6 0 48 21.4 48 48s-21.4 48-48 48H400c-26.6 0-48-21.4-48-48s21.4-48 48-48m0 160h416c26.6 0 48 21.4 48 48s-21.4 48-48 48H400c-26.6 0-48-21.4-48-48s21.4-48 48-48"/></svg>