<svg xmlns="http://www.w3.org/2000/svg" width="200" height="200" class="icon" viewBox="0 0 1024 1024"><path d="m995.694 284.17-92.19 92.19c-9.4 9.399-24.598 9.399-33.997 0L647.531 154.384c-9.4-9.4-9.4-24.598 0-33.997l92.19-92.19c37.396-37.396 98.19-37.396 135.786 0l120.187 120.187c37.596 37.396 37.596 98.19 0 135.786m-427.355-84.591L43.195 724.723.8 967.697c-5.8 32.796 22.797 61.193 55.594 55.594l242.974-42.596 525.144-525.144c9.399-9.399 9.399-24.597 0-33.996L602.536 199.579c-9.6-9.4-24.798-9.4-34.197 0M248.174 679.727a27.88 27.88 0 0 1 0-39.595L556.14 332.165c10.998-11 28.597-11 39.595 0s11 28.597 0 39.595L287.77 679.727a27.88 27.88 0 0 1-39.595 0M175.98 847.91h95.99v72.592l-128.986 22.597-62.194-62.193L103.39 751.92h72.592z"/></svg>