<svg xmlns="http://www.w3.org/2000/svg" width="200" height="200" class="icon" viewBox="0 0 1024 1024"><path d="M800 108.2c126 90 208 237.2 208 403.8 0 273.6-221.6 495.4-495 496-273 .6-496.6-222-497-495.2-.2-166.6 81.8-314.2 207.6-404.4 23.4-16.6 56-9.6 70 15.4l31.6 56.2c11.8 21 6.2 47.6-13.2 62-83 61.6-136 159.2-136 269.8C175.8 696.4 325 848 512 848c183.2 0 337.2-148.4 336-338.2-.6-103.6-49.4-203.6-136.2-268-19.4-14.4-24.8-41-13-61.8l31.6-56.2c14-24.8 46.4-32.2 69.6-15.6M592 528V48c0-26.6-21.4-48-48-48h-64c-26.6 0-48 21.4-48 48v480c0 26.6 21.4 48 48 48h64c26.6 0 48-21.4 48-48"/></svg>