<svg xmlns="http://www.w3.org/2000/svg" width="224.805" height="200" class="icon" viewBox="0 0 1151 1024"><path d="m1056.07 342.983-292.164-42.595L633.322 35.621c-23.397-47.194-91.189-47.794-114.786 0L387.952 300.388 95.788 342.983c-52.393 7.599-73.39 72.191-35.395 109.186l211.373 205.975-49.993 290.964c-9 52.593 46.394 91.989 92.788 67.392L575.93 879.117 837.296 1016.5c46.395 24.397 101.788-14.799 92.789-67.392l-49.994-290.964 211.374-205.975c37.995-36.995 16.998-101.587-35.396-109.186M777.103 624.548l47.394 276.766-248.57-130.584L327.36 901.314l47.394-276.766-201.175-195.976 277.965-40.395L575.93 136.21l124.384 251.968 277.966 40.395z"/></svg>