<svg xmlns="http://www.w3.org/2000/svg" width="225" height="200" class="icon" viewBox="0 0 1152 1024"><path d="M576 64C257.88 64 0 321.88 0 640c0 105.6 28.5 204.52 78.12 289.6C89.34 948.84 110.72 960 133 960h886c22.28 0 43.66-11.16 54.88-30.4 49.62-85.08 78.12-184 78.12-289.6 0-318.12-257.88-576-576-576m0 128c29.42 0 53.16 20.26 60.64 47.3-2.22 4.52-5.28 8.46-6.9 13.34l-18.44 55.34c-10.26 6.98-21.94 12.02-35.28 12.02-35.34 0-64-28.66-64-64s28.64-64 63.98-64M192 768c-35.34 0-64-28.66-64-64s28.66-64 64-64 64 28.66 64 64-28.66 64-64 64m96-320c-35.34 0-64-28.66-64-64s28.66-64 64-64 64 28.66 64 64-28.66 64-64 64m493.54-144.82-122.66 368C686.26 694.66 704 729.08 704 768c0 23.44-6.76 45.1-17.76 64H465.76c-11-18.9-17.76-40.56-17.76-64 0-67.88 53-122.86 119.8-127.18L690.48 272.8c8.34-25.12 35.46-38.9 60.72-30.34 25.14 8.38 38.7 35.58 30.34 60.72m29.32 114.4 31.04-93.1c6.94-2.58 14.26-4.46 22.1-4.46 35.34 0 64 28.66 64 64s-28.66 64-64 64c-22.76-.02-41.78-12.56-53.14-30.44M960 768c-35.34 0-64-28.66-64-64s28.66-64 64-64 64 28.66 64 64-28.66 64-64 64"/></svg>