<svg xmlns="http://www.w3.org/2000/svg" width="200" height="200" class="icon" viewBox="0 0 1024 1024"><path d="M600 832h48a24 24 0 0 0 24-24V376a24 24 0 0 0-24-24h-48a24 24 0 0 0-24 24v432a24 24 0 0 0 24 24m328-672H763.18l-68-113.4A96 96 0 0 0 612.82 0H411.18a96 96 0 0 0-82.32 46.6L260.82 160H96a32 32 0 0 0-32 32v32a32 32 0 0 0 32 32h32v672a96 96 0 0 0 96 96h576a96 96 0 0 0 96-96V256h32a32 32 0 0 0 32-32v-32a32 32 0 0 0-32-32m-520.32-58.18A12 12 0 0 1 418 96h188a12 12 0 0 1 10.3 5.82L651.22 160H372.78zM800 928H224V256h576zm-424-96h48a24 24 0 0 0 24-24V376a24 24 0 0 0-24-24h-48a24 24 0 0 0-24 24v432a24 24 0 0 0 24 24"/></svg>